/* XPM */
static char *Nouveau_projet__2_1708383992[] = {
/* columns rows colors chars-per-pixel */
"50 50 209 2 ",
"   c black",
".  c #09080C",
"X  c #0D0106",
"o  c #180306",
"O  c #0D0C13",
"+  c #100F17",
"@  c #0A161A",
"#  c #101617",
"$  c #14131C",
"%  c #10181F",
"&  c #2A0501",
"*  c #3F0801",
"=  c #3B0704",
"-  c #270313",
";  c #340419",
":  c #0B1E22",
">  c #181721",
",  c #1B1A24",
"<  c #1E1D2C",
"1  c #171620",
"2  c #201E2D",
"3  c #192429",
"4  c #1D2733",
"5  c #0C3133",
"6  c #1C373C",
"7  c #0C2D2F",
"8  c #212C2F",
"9  c #252334",
"0  c #292636",
"q  c #262339",
"w  c #2A263C",
"e  c #232A39",
"r  c #2B2A3D",
"t  c #212C30",
"y  c #2B2D3B",
"u  c #5E0A1A",
"i  c #690D02",
"p  c #7E0F03",
"a  c #4D0725",
"s  c #5A082C",
"d  c #740A38",
"f  c #7C0B32",
"g  c #670932",
"h  c #1D3B41",
"j  c #2E2B43",
"k  c #312D46",
"l  c #322E49",
"z  c #2C3143",
"x  c #2C3848",
"c  c #333145",
"v  c #35324C",
"b  c #38344F",
"n  c #3C394D",
"m  c #353849",
"M  c #3A3651",
"N  c #3D3955",
"B  c #3F3C58",
"V  c #363851",
"C  c #413C56",
"Z  c #423E5A",
"A  c #4A3F55",
"S  c #1E404D",
"D  c #1A4951",
"F  c #145356",
"G  c #28454D",
"H  c #314246",
"J  c #324348",
"K  c #294956",
"L  c #3B435B",
"P  c #374856",
"I  c #3F515D",
"U  c #2E505B",
"Y  c #155E66",
"T  c #374C62",
"R  c #275661",
"E  c #355465",
"W  c #2D4D62",
"Q  c #1A767C",
"!  c #1F696C",
"~  c #276B76",
"^  c #366877",
"/  c #29727B",
"(  c #38747D",
")  c #45415D",
"_  c #4E4259",
"`  c #42585F",
"'  c #474361",
"]  c #4A4663",
"[  c #4D4866",
"{  c #4E4A68",
"}  c #404F66",
"|  c #524D6B",
" . c #44566E",
".. c #415765",
"X. c #55506E",
"o. c #575270",
"O. c #595473",
"+. c #5E5A79",
"@. c #435770",
"#. c #615C7C",
"$. c #4A6369",
"%. c #436069",
"&. c #476775",
"*. c #536F7C",
"=. c #4F737E",
"-. c #931203",
";. c #9D111B",
":. c #A81404",
">. c #BD1704",
",. c #A51315",
"<. c #AD1410",
"1. c #8C0E27",
"2. c #840D2C",
"3. c #277E84",
"4. c #3B7183",
"5. c #337A82",
"6. c #407B88",
"7. c #607E8F",
"8. c #169496",
"9. c #128B8F",
"0. c #36858C",
"q. c #26969B",
"w. c #34959C",
"e. c #2C8991",
"r. c #289EA3",
"t. c #14A9AA",
"y. c #18B0B1",
"u. c #22A5AA",
"i. c #3AA5A9",
"p. c #2EADB0",
"a. c #35ADB3",
"s. c #27BABB",
"d. c #39B6BA",
"f. c #468695",
"g. c #588A94",
"h. c #479599",
"j. c #569094",
"k. c #63858E",
"l. c #638592",
"z. c #648995",
"x. c #67969D",
"c. c #4899A5",
"v. c #719EAA",
"b. c #45A9AA",
"n. c #58A9B1",
"m. c #52B6BA",
"M. c #65A4AA",
"N. c #65B7BC",
"B. c #6AAAB0",
"V. c #3FBDC1",
"C. c #55BFC3",
"Z. c #68B8C1",
"A. c #2CC4C4",
"S. c #2CCBCB",
"D. c #3BC4C6",
"F. c #33CACA",
"G. c #37C5C5",
"H. c #33CFD1",
"J. c #38D6D6",
"K. c #3FE5E4",
"L. c #48C6C8",
"P. c #43D3D3",
"I. c #4AD9DA",
"U. c #46D8D9",
"Y. c #5BDEDF",
"T. c #54DEDE",
"R. c #59C8CF",
"E. c #6DC1C6",
"W. c #6DCED1",
"Q. c #68D7D8",
"!. c #76D6D8",
"~. c #79C1C1",
"^. c #5CDFE0",
"/. c #49E4E3",
"(. c #50EBEA",
"). c #44F9FB",
"_. c #55FDFF",
"`. c #5BF4F3",
"'. c #6DE5E5",
"]. c #68E7E8",
"[. c #77E7E8",
"{. c #69FDFF",
"}. c #73FCFD",
"|. c #7DFDFD",
" X c #80B6BD",
".X c #82BEC4",
"XX c #8BC3C8",
"oX c #96C8D9",
"OX c #91D3D9",
"+X c #B3D8E3",
"@X c #89E9EA",
"#X c #99E8E8",
"$X c #83FDFD",
"%X c #8AFCFC",
"&X c #89F1F1",
"*X c #99F4F4",
"=X c #9EFFFE",
"-X c #94F6F6",
";X c #A9EFF0",
":X c #A3F6F6",
">X c #A3FDFE",
",X c #AAFDFD",
"<X c #ADF4F4",
"1X c #B2FEFD",
"2X c #D7EBF0",
"3X c #CAFFFF",
"4X c #D8FEFE",
"5X c #E3F6F7",
"6X c #F8FDFB",
/* pixels */
"' ] { | | | Z  .B.M.0.x ( $X*XJ.H.r.K j c v n n n n n n 0 < 9 9 r c n m l m N C Z ] ] ] [ [ [ [ ) m ",
"] { | X.X.[ l.=X1X,XR.c.d.i.Q.A.s.L N                                 $ l N C Z ' ] [ [ | { { | [ Z ",
"| | o.O.o.M N.1X&X/.i.E ^ ' @. .L 9       >.>.>.>.>.>.>.>.>.>.>.>.p       M Z ] ] { | | | X.X.X.{ ' ",
"C | O.o.B j R i.J.(.'.Z.c.^ L L < O   p p >.>.>.>.>.>.>.>.>.>.>.>.:.p &   + $ C [ | | o.O.O.X.[ ) M ",
"m z.OXOXn.w G W.%X|.}.{.{.).C.W.:     >.>.>.>.>.>.>.>.>.>.>.>.>.>.>.>.*       c b Z [ | | ' N b v M ",
"!.,X3X>X{.G e.'.>X>X=X|.}.d.R.w.% & p >.>.>.>.>.>.>.>.>.>.>.>.>.>.>.>.-.p     O 9 l N C M l v v v v ",
"-X4X5X[.(.R q.P.%X>X,XQ.L.3.K 3 . * >.>.>.>.>.>.>.>.>.>.>.>.>.>.>.>.>.>.>.* a   2 j j k l k l C { f.",
"(.{.:XQ.S.R 8.F.}.'.P.a.4.| <     * >.>.>.>.>.>.>.>.>.>.>.>.>.>.>.>.>.>.>.>.>.  q b v j r M ] [ [ R.",
"K././.S.s.0.N.a.d.a.0.' { | ,   & i >.>.>.>.>.>.*                               2 k C N l B B ' B g.",
"U.J.G.a.e.!.[./ 0 r v ) ] ] >   p >.>.>.>.>.>.>.*                                 $ ' N b b B B v.@X",
"5.G y e z W P k k w j M N B $   p >.>.>.>.>.*     J oXoXoXoXoXoX2X6X6X6X6XoXoXoXH     r b l l g.,X'.",
"G r j m b b b b v v j j l v $   p >.>.>.>.>.*   # ..oXoXoXoX+X+X5X6X6X5X2XoXoXoX*.t   9 l q z [.].D.",
"k l b M B B B N N v l w j x $   p >.>.>.>.>.*   H k.oXoXoXoX2X6X6X6X6X+XoXoXoXoXoXk.  9 j v } [.d./ ",
"b M B Z Z Z Z Z C N             p >.>.>.>.>.*   H $.$.oXoXoXoXoXoXoXoXoXoXoXoXoXoXl.  4 N B B T z j ",
"M B B ' [ [ [ ] 1 $   & p p &   p >.>.>.>.>.*   H $.$.k.k.oXoXoXoXoXoXoXoXoXoXoXoXl.  9 ] ] B N j j ",
"B ) [ { X.o.X.{       a >.>.*   p >.>.>.>.>.*   H $.$.$.$.oXoXoXoXoXoXoXoXoXoXoXoXl.  0 { ) v B B l ",
"A [ | o.O.#._ ,     p -.>.>.*   p >.>.>.>.>.*   H $.$.$.$.k.k.k.l.l.k.k.k.k.k.k.k.`   0 ' l b ) N j ",
"] { o.O.#.*.n   - - >.>.>.>.*   p >.>.>.>.>.*   8 P $.$.$.$.$.$.$.$.$.$.$.$.$.$.P 8   4 l j B ' l j ",
"l Z { o.| ] r   d d >.>.>.>.*   p >.>.>.>.>.*     3 $.$.$.$.$.$.$.$.$.$.$.$.$.$.3     4 j B | o.o.' ",
"' l l M M 7.%.  d d ,.>.>.>.*   p >.>.>.>.>.i * o # H $.$.$.$.$.$.$.$.$.$.H H H # @ % 9 Z ] { X.o.o.",
"| [ l l Z.3XM.  d d d >.>.>.*   p >.>.>.>.>.>.>.a     $.$.$.$.$.$.$.$.$.$.        7 z v T ' ] [ | | ",
"{ [ v k n.*X0.  d d d d d d -   p >.>.>.>.>.>.>.>.p                           >.* 7 V B Z Z ' ' ] { ",
"] ) v w E m.!   d d d d d d -   u ;.>.>.>.>.>.>.>.:.p p p p p p p p p p p p p >.* 1 v b B C Z Z Z ' ",
"N M l w m P e   d d d d d d -   a 1.>.>.>.>.>.>.>.>.>.>.>.>.>.>.>.>.>.>.>.>.>.>.* # v b b M B B B B ",
"l l j q b 7.6.  d d d d d d -   a f 1.>.>.>.>.>.>.>.>.>.>.>.>.>.>.>.>.>.>.>.>.>.= $ M l v v b b M v ",
"j j q z n.$XM.  d d d d d d -   a d d >.>.>.>.>.>.>.>.>.>.>.>.>.>.>.>.>.>.>.>.,.= $ l k l l l k l l ",
"q q 4 V._._.b.  d d d d d d -   a d d >.>.>.>.>.>.>.>.>.>.>.>.>.>.>.>.>.>.>.>.d - 1 j q j j j j j j ",
".Xx.M a.)._.b.  d d d d d d -   a d d ,.,.>.>.>.>.>.>.>.>.>.>.>.>.>.>.>.>.>.>.d - + l l j j 0 x l.N.",
"<XG.4. .G._.i.  d d d d d d -   a d d d d >.>.>.>.>.>.>.>.>.>.>.>.>.>.>.>.>.>.d - + N M M N M.-X>X1X",
"#XS.a.&.x.( 0.  d d d d d d -   a d d d d >.>.>.>.>.>.>.>.>.>.>.>.>.>.>.>.>.>.d - 1 B B N Z.=X=X1X4X",
"!.A.G.=.-XE.G   d d d d d d -   a d d d d 1.<.>.>.>.>.>.>.>.>.>.>.>.>.>.>.>.>.d - 1 Z B  .[.&X&X&X<X",
"G.s.s.H 0.^ m   d d d d d d -   a d d d d d ;.>.>.>.>.>.>.>.>.>.>.>.>.>.>.>.>.d - > ' Z f.Y.].'.'.'.",
"G.y.3.j.;X&.r   d d d d d d -   a d d d d d 2.1.1.1.1.>.>.>.>.>.>.>.>.;.1.1.1.d - , ] ' c.I.^.^.(.Q.",
"i.8.R W.N.r.9   d d d d d d -   a d d d d d d d d d d ,.,.,.,.,.,.,.,.2.d d d d - , ] ' i.J.J.U.I.I.",
"Y G ~ / Y K <   d d d d d d -   a d d d d d d d d d d d d d d d d d d d d d d d - $ ] ) e.S.H.F.F.p.",
"P _ y r l l 9   - - d d d d -   a d d d d d d d d d d d d d d d d d d d d d d d - $ M b v ~ 9.t.t.Q ",
"_ _ l v M M 9       d d d d -   a d d d d d d d d d d d d d d d d d d d d d d d - + r r j V v b T l ",
"A k v M N N B N                 a d d d d d d d d d d d d d d d d d d -   d d d - # P XX&XA.e.b B B ",
"w.x M C C C Z B 9 < < , 9 r #   a d d d d d d d d d d d d d d d d d d -   d d d - $ OX:X-XI.s.^ @X#X",
"0.v C ' ' Z ' ) l k l M N C >   a d d d d d d d d a                   a d d d d - 3 Y.'.'.T.A.U !.#X",
"j b ' ] [ ' ] ' l k M M N Z >   a d d d d d d d d a   9 0 0 O   ; a a g d d d d - 5 J.U.P.q.T C 6.E ",
"j l ] { { ] [ Z j k l M N C >   a d d d d d d d d a   r j c +   a d d d d d d d - @ t.w.4.B B Z l l ",
"l l ' { | [ Z j j k l M M B 1   a d d d d d d d d a   :X$XU.+   a d d d d d d d - $ ) [ { o.) k M M ",
"b j C ' N b j j j j l l M N 1   a d d d d d d d d a   ].U.W $   a d d d d d d - X $ ) ' { | ) N ) B ",
"N j j j k l l l k j j k l v +   a d d d d d d d d a   u.W N $   ; s d d d a a   O < B ) ' ] B ] { [ ",
"l j j k l l l l l k j 0 w j 1   a d d d d d d d d a   G c Z $     - d d d       < l v b M M v ] o.{ ",
"k l v b b l b b b l v k 0 9 6   ; s d d d d d d s ;   E.C ) r , O o a a a     + q l v v b v w C ' M ",
"b b b M M N M N M N b v r 9 %     - d d d d d d -     E C | | X.,             l l v b b M M c v b k ",
"b b M C C C C N N N M v q ' g.B.G                 # m r N X.O.O.O.o.{ ) b j l v b b M N N N N k j l ",
"N C Z ) ) ' ' Z M b b j v *X,X>X~.j.h.S F D 6 e y ) #.) c { | X.X.[ Z M l l v v b N N N Z Z Z M q l "
};
