/* XPM */
static char *Nouveau_projet__1_1708383991[] = {
/* columns rows colors chars-per-pixel */
"50 50 221 2 ",
"   c #262335",
".  c #282536",
"X  c #26243A",
"o  c #29263C",
"O  c #2B293E",
"+  c #26293C",
"@  c #25303D",
"#  c #2E2B43",
"$  c #2C2B44",
"%  c #312D46",
"&  c #322E49",
"*  c #2C3143",
"=  c #2F3149",
"-  c #2A3B4A",
";  c #323046",
":  c #35324C",
">  c #38344F",
",  c #323A4B",
"<  c #393147",
"1  c #363651",
"2  c #3A3651",
"3  c #363A52",
"4  c #3D3955",
"5  c #3E3D59",
"6  c #2F3B51",
"7  c #433A4F",
"8  c #41364C",
"9  c #423C55",
"0  c #4A3E54",
"q  c #423E5A",
"w  c #1E404D",
"e  c #1E4654",
"r  c #27424E",
"t  c #2C4453",
"y  c #274A58",
"u  c #34445A",
"i  c #3D425C",
"p  c #33495C",
"a  c #374355",
"s  c #3F515D",
"d  c #314955",
"f  c #1A5D66",
"g  c #1A5D68",
"h  c #0F5F66",
"j  c #3B4C62",
"k  c #304F61",
"l  c #235461",
"z  c #2D5463",
"x  c #285864",
"c  c #275B66",
"v  c #3D5364",
"b  c #385568",
"n  c #2D4D62",
"m  c #1A757C",
"M  c #1C6770",
"N  c #34636E",
"B  c #296A76",
"V  c #326373",
"C  c #376A79",
"Z  c #2A727B",
"A  c #38747D",
"S  c #44415E",
"D  c #4D4359",
"F  c #52465D",
"G  c #54485F",
"H  c #464461",
"J  c #4A4563",
"K  c #444B64",
"L  c #4D4966",
"P  c #4E4C69",
"I  c #524D6B",
"U  c #574B63",
"Y  c #415366",
"T  c #45566D",
"R  c #48596C",
"E  c #54506E",
"W  c #5D516A",
"Q  c #565371",
"!  c #5A5574",
"~  c #5C5877",
"^  c #5E5A79",
"/  c #435770",
"(  c #61556D",
")  c #625D7D",
"_  c #476776",
"`  c #50717E",
"'  c #267C84",
"]  c #3B7183",
"[  c #357A84",
"{  c #327D89",
"}  c #447C88",
"|  c #587C89",
" . c #607E8F",
".. c #647A92",
"X. c #169597",
"o. c #108F93",
"O. c #25888D",
"+. c #32828C",
"@. c #3C868E",
"#. c #248E92",
"$. c #368C96",
"%. c #289599",
"&. c #35959C",
"*. c #2A9EA2",
"=. c #389AA1",
"-. c #16A7A8",
";. c #19B0B1",
":. c #22A5AA",
">. c #38A5A9",
",. c #36ADB3",
"<. c #23BCBC",
"1. c #2AB7B9",
"2. c #39B7BA",
"3. c #2EADB0",
"4. c #49828A",
"5. c #428B94",
"6. c #478896",
"7. c #588794",
"8. c #53959C",
"9. c #42989E",
"0. c #638A96",
"q. c #65939D",
"w. c #6C919E",
"e. c #4997A3",
"r. c #539EA5",
"t. c #649BA5",
"y. c #719DA6",
"u. c #55A4AC",
"i. c #43ADB2",
"p. c #57ABB2",
"a. c #44BABD",
"s. c #48B2B6",
"d. c #5CB0B7",
"f. c #44A0A8",
"g. c #66A3AD",
"h. c #67ACB4",
"j. c #73ABB2",
"k. c #67B7BD",
"l. c #38BEC1",
"z. c #4CBEC3",
"x. c #69B9C1",
"c. c #78BAC1",
"v. c #2BC3C4",
"b. c #2CCCCC",
"n. c #3BC4C6",
"m. c #33CACA",
"M. c #37C5C6",
"N. c #35D5D4",
"B. c #39DBDA",
"V. c #3CD3D5",
"C. c #33CFD1",
"Z. c #3EE4E3",
"A. c #4BCCCD",
"S. c #44C8C9",
"D. c #54CCCE",
"F. c #43D3D3",
"G. c #4AD9DA",
"H. c #46D8D9",
"J. c #54DDDD",
"K. c #5BDEDF",
"L. c #55D3D4",
"P. c #5CC7D1",
"I. c #68C6C9",
"U. c #76CCCF",
"Y. c #66DBDC",
"T. c #68D4D5",
"R. c #72DBDC",
"E. c #79D7D8",
"W. c #74CED1",
"Q. c #5CDFE0",
"!. c #48E5E4",
"~. c #50EBEA",
"^. c #44F9FB",
"/. c #55FDFF",
"(. c #5BF4F3",
"). c #64E3E3",
"_. c #6CE5E5",
"`. c #6FE9EA",
"'. c #68E9EA",
"]. c #72E3E3",
"[. c #74E8E8",
"{. c #7CECEC",
"}. c #7BE4E5",
"|. c #6BFEFF",
" X c #65FAFC",
".X c #7AF3F2",
"XX c #73FCFD",
"oX c #7DFDFE",
"OX c #75EFF2",
"+X c #80B6BD",
"@X c #87BEC4",
"#X c #88C2C7",
"$X c #87CCD3",
"%X c #86D4D7",
"&X c #93D7DB",
"*X c #84E3E5",
"=X c #84EBEC",
"-X c #8BEDEE",
";X c #8AE1E3",
":X c #9CEBEB",
">X c #93E9EA",
",X c #83FDFD",
"<X c #8BFCFC",
"1X c #8BF1F1",
"2X c #94F3F3",
"3X c #99F4F4",
"4X c #93FEFE",
"5X c #9EFEFE",
"6X c #AAE6E8",
"7X c #A3F6F6",
"8X c #ABF4F4",
"9X c #A3FDFE",
"0X c #ABFCFD",
"qX c #B3FDFD",
"wX c #BCFAFA",
"eX c #BCF3F3",
"rX c #A9EFF0",
"tX c #C9FEFE",
"yX c #C6FBFB",
"uX c #D9FFFF",
"iX c #E6FFFE",
/* pixels */
"H J L I I I 0 T g.g.5.- A ,X2XB.N.*.n 5 L I Q ! ! ^ ! ! 8 $ & 2 S L Q j % > 4 q q S J J J L L L q 2 ",
"J I I E Q L 0.5X0X0XA.e.2.>.T.v.1.6 4 H J L I I Q Q Q I S $ & 2 q S H 5 & 2 9 q S J L I I I I I L q ",
"L I Q ! Q 2 k.qX=X!.=.b _ j / T j : 4 4 q J L L J L L J S $ & & > : : > % 2 q J J U I I I Q I I L H ",
"q I ! Q 9 # f =.B.~.].k.e.V i S & & 2 4 q q q q J S S S 5 $ $ & : 2 4 2 $ $ : q J I I Q ! Q Q L q 4 ",
"a 0.&X$Xu.o t W.<XoXXX|.(.^.z.W.x & : 2 4 q q q q q q q & $ & & : 9 q q 4 & % & 2 q L I I J 9 2 > : ",
"E.8XtX9X|.t O._.9X5X5XoXXXz.D.&.y & & : : 2 4 4 4 4 4 2 & $ & 1 2 4 q S S S 4 & % & 2 q 2 & & & ; 1 ",
"3XuXiX{.~.y %.F.<X5X0XY.z.' V # o # # & : : 2 8 4 2 2 : $ & & 2 9 q H L I I I J % # # & & # & q I 6.",
"(.(.7XQ.b.c X.C.XX_.F.2.] E ! L % # # % & & & : > & & $ $ & 1 2 q S L L Q ! ^ Q > > & # $ 2 J L J P.",
"Z.!.!.b.l.$.k.3.,.2.+.S L I E I q % o & & & & & & & # $ # & > 8 q J I E Q Q ^ ^ q q q 9 & 4 q H q 7.",
"H.N.m.>.O.E.}.Z . + > S J J J J q & o $ & $ o $ $ o % $ # & & 4 S J S q q q 4 H q q H q 2 2 4 5 y.;X",
"A r @ @ $ y u % % O % > 4 q q 4 q & X X o o & & & & $ o $ # & 2 ; ; : : ; : : : 2 J L H 1 & & 7.0X`.",
"r O O < > 2 1 > : ; % # & & > & & $ X X o > 2 8 & & & & $ $ # # # # = : : : = $ & L L 4 % X * `.).n.",
"; : 2 4 4 9 4 4 4 : & $ $ = 1 1 > & & $ 2 q q 4 2 2 2 & # # # & : : 3 3 1 1 : # % q H a % & Y ].l.Z ",
": 3 4 q 0 q S q 9 4 : $ : 3 5 j J q 4 & J J J q q q 2 & & & # # S K H S 5 3 : * > q.W.3 4 4 9 K # $ ",
"2 4 q H J J L J q q % : 3 H K E E I J 4 I I I L J q q 9 8 & # # T E E P K 5 3 # d.5Xc.a J J q 4 # # ",
"q S L I E Q Q P H : o & 3 H P ! ] Q q S Q Q Q I I J q 2 & & o & ! ~ Q Q K S > % p =.$.S I S : 4 5 % ",
"S J I Q ! ~ ! I 2 & S J 3 1 5 J L 4 > 9 q I Q E P L H 4 T @Xr., P E K S 5 3 : w.#X5.d S H & 2 q 4 $ ",
"S I Q ! ) ) ! 4 2 S P P J 1 = 3 8 8 0 9 0 7 9 q S S 4 4 7.eX).>.p S S i 3 = _ yX>XM.X.t & O q S & $ ",
": q I Q E J 9 : 4 S S S 4 & 4 J I 0 F G F F 0 8 & 4 q L I k.i.a.k.+X_ : Y V v :XK.<.o.- # q I Q E S ",
"S & ; 4 2 | q.: 2 q 4 & # > 5 J I q F W W U D 0 < 4 E v 3 6 [ {.OX).[ t.2Xm.- ,.<.-.g : q J P Q Q ! ",
"I L < % c.tX2Xa.& % = 6.e.3 9 H J 2 9 W ( W F 7  .6XyX*XS.[ r.Q.N.v.c <X}.S.&X].S.#.* 2 S H J L I I ",
"P L : % p.rXA.M.z u T.oXoXOX| 4 ..&Xx.U F 0 S $X9XqXyX>XR.L.,.l.<.' L T.T.yX9X4XD.#.1 4 4 S S J J P ",
"H q : O z a.*.[ 3 *X4X0X5X,Xe.| rXG. X/ 9 8 t.4X9X0X2X}.Y.D.n m M : 2 p U.qX9X=X&.p : 2 4 4 q q q q ",
"9 4 % o < p 3 P b ;XqXuX7XJ.,.:X3XV.!.] q J p._.[.=XR.Y.L.i.i J L S 4 ; p.R.A.*.x 3 2 : 2 4 3 q q 9 ",
"& & # X 4 | c.6XE.R.5X0XL.l.+.W.'.Z.l.S J I } H.J.J.S.S.=.j J J P E E J b =.O.n & 2 2 & : : : 2 2 2 ",
"# $ X $ h.,X4X5XqXQ..XR.2.V q ] l.l.{ 2 q H i l.>.-.;.' 3 3 5 5 H H j i 3 6 H P J & & % & & : & & & ",
"X     2.^./.|.oX4X{.S.s.2Xs.K S b b J L P L J 5 t e g = = 1 3 3 4 4 2 & 4 H J L L q # o # o o $ # # ",
"@Xr.2 ,.^./.|.oX4X5XL.}.9X2X{ S U ] Q Q Q E I I J S > $ $ = $ % $ $ X $ 4 q S J q 4 & % % # o , 0.j.",
"8XM.A R M./. XXX<X=XM.<X7X6X] J L L I I I I L L S q 4 X $ : 1 1 : & % % : q q 4 2 2 4 2 & 3 g.3X9XqX",
":Xb.,._ t.A z.Q.i.g &.,X-X$Xq q J J J J J J q q q 4 4 % 5 S q 4 2 : & & > 2 : & 4 q 4 4 1 c.4X9XqXtX",
"E.v.M.` 2XI.C - 1 5 j #.%.V 2 q q q J q q q q q q 2 2 4 J J S q 9 2 & $ % % % 9 H q q q T {.=X1X1X8X",
"n.<.1.- @.C R 7 # % % $ X $ > 2 4 4 q q 5 5 5 4 2 2 : J L L J S q 4 % o o o q L L J S q 6.~.)._.`.].",
"M.;.Z 7.8X` 0 < & ; & & . O < 2 2 2 4 2 4 2 4 2 : : : I I I L J q 2 & 2 2 & 2 L L L J S e.G.J.K.Q.Q.",
">.X.x T.d.*.; & 2 2 : % o # & & : 2 2 2 2 2 : & : & : S J J S q 2 q J S q q 2 2 J I J J >.V.H.H.G.H.",
"h r B m g e $ > 4 9 4 % 3 4 $ % & 2 1 > : % & % # X $ & 2 & & 8 J I L J q q 4 & 4 J S q { b.C.l.m.3.",
"D D O O & & & 2 q S q # 4 H 5 # $ & $ $ $ $ o % S Q Q P 2 & S I ] I L J q q 4 2 & 2 2 2 6 ' ' -.;.m ",
"D D ; ; 2 2 2 4 H J ; # 3 5 i : o o K q.j.s i ! ! ! Q P i E I W W I I J q q 4 2 & % # # = 6 1 1 j : ",
"D O : > 4 4 4 4 q 4 % O = : 1 4 J I  .*XeX} K P E P P K I | ..! I I J J q q 4 2 & # a #XOXl.' 1 q q ",
"&., 3 9 q q 0 5 : % $ O : 4 H L I ! W ..y.H H H j H H i W ! ! Q I I J J q q 2 8 & 1 %X7X1XH.<.] ;X>X",
"+.; S S S q S S & % ; 2 4 q J L I ! ! ..L 4 5 i 5 q 5 5 I I I J J q q q 2 2 I .._ 4.Q.`.`.G.l.n W.>X",
"# : S J J J J J & % : 4 9 q S L I ! ~ ) ~ 3 3 5 5 4 1 : 4 3 2 > 2 : & % % t.9XeXu.%.N.H.F.%.n S } b ",
"# & J L I J J q # % & 2 4 q S L I E ! ^ I 1 1 3 3 : = o % ; # % $ % $ O : 4XI.s.[ y :.&.] 5 4 5 & & ",
"& & J I I J q # # % & 2 2 9 q J L I E L 4 : : = = v #X7X,XH.# % & & = $ $ 5.M n = 2 S J I Q S % 8 2 ",
"2 % 9 S 9 > # # # % % & : q q q S 9 2 > # = $ $ X d.[.'.F.n : 2 2 2 : : & # o # : 2 S J L I S 4 q q ",
"2 # # # % % % & % # # % & : : : ; * O O .     r t >.H.:.z 4 4 4 4 4 2 2 : & % # & 4 q q J J 4 J L L ",
"& # % % & : & & % % % o $ o i h.%X&X7.    , y.*XT.s.C t ; 9 q S q q 4 4 2 : # $ % & & 2 > 2 & L Q L ",
"& : & > > : 2 : : : & %     u.4X7XwXE., q.rX8X[.).L.j.I.9 S L L J H q q 2 & # % % & & : : ; o S H 4 ",
": : : 8 2 2 4 2 4 2 2 & o   t z.a.2.} 0.`..X<X].Q.5.4.b 9 P I E I I I q q # % & & : : 2 4 4 & ; : & ",
"2 2 9 2 q q q 9 q 2 2 : o H 7.h.R.Y.8.} m.B.!.I.>.- < O 4 E ! ! ! Q I q 2 # & & 2 2 2 2 4 4 4 % O & ",
"2 9 q S S S q q 2 > > $ : 3X0X9X9X4X.XN O.O.c p P ~ ) S < P E E I L q 4 % & & 2 2 4 4 9 q q q 2 . & "
};
