/* XPM */
static char *result[] = {
/* columns rows colors chars-per-pixel */
"50 50 225 2 ",
"   c #282535",
".  c #2A263C",
"X  c #2C2A3E",
"o  c #262437",
"O  c #3D303D",
"+  c #2E2B43",
"@  c #2C2B44",
"#  c #312D46",
"$  c #322E49",
"%  c #3A2F4A",
"&  c #2C3B4B",
"*  c #283646",
"=  c #333346",
"-  c #35324C",
";  c #39344E",
":  c #38384A",
">  c #3A3651",
",  c #353A54",
"<  c #3D3955",
"1  c #3D3C59",
"2  c #343551",
"3  c #2E3B50",
"4  c #463847",
"5  c #433B55",
"6  c #423D5A",
"7  c #403551",
"8  c #533E48",
"9  c #7D275C",
"0  c #620973",
"q  c #680D75",
"w  c #721475",
"e  c #7A2460",
"r  c #2A4857",
"t  c #3D435C",
"y  c #364657",
"u  c #35424F",
"i  c #384F63",
"p  c #255764",
"a  c #3A5769",
"s  c #196F76",
"d  c #35626C",
"f  c #2B6974",
"g  c #396B77",
"h  c #26727B",
"j  c #0D5B62",
"k  c #45415D",
"l  c #49455A",
"z  c #524557",
"x  c #734D47",
"c  c #795147",
"v  c #644C56",
"b  c #6C4C4D",
"n  c #464461",
"m  c #4A4663",
"M  c #4D4966",
"N  c #4D4B69",
"B  c #444A64",
"V  c #524D6B",
"C  c #534866",
"Z  c #475669",
"A  c #55506E",
"S  c #565271",
"D  c #5A5574",
"F  c #5E5A79",
"G  c #5E5977",
"H  c #455B74",
"J  c #615B7B",
"K  c #466676",
"L  c #466970",
"P  c #716A64",
"I  c #995D3D",
"U  c #B6693C",
"Y  c #CC733F",
"T  c #C7723F",
"R  c #D7793C",
"E  c #CC7A2B",
"W  c #E17E3D",
"Q  c #852E59",
"!  c #A23379",
"~  c #922C6D",
"^  c #895948",
"/  c #955C44",
"(  c #98424C",
")  c #BD5857",
"_  c #8E644B",
"`  c #A66547",
"'  c #AC6F4D",
"]  c #B34A66",
"[  c #C35F51",
"{  c #CB7741",
"}  c #CC6D48",
"|  c #D8891D",
" . c #F99C1C",
".. c #F79D19",
"X. c #EB9919",
"o. c #F7AC03",
"O. c #FAAE03",
"+. c #F9A70C",
"@. c #F6A90A",
"#. c #F9AB0A",
"$. c #F4A50D",
"%. c #FCB002",
"&. c #FAB20D",
"*. c #F9A213",
"=. c #F7A414",
"-. c #FAB418",
";. c #EFA118",
":. c #D68327",
">. c #F98F2E",
",. c #F78E2E",
"<. c #F79623",
"1. c #F99624",
"2. c #F9922A",
"3. c #F89428",
"4. c #EE833B",
"5. c #F98B35",
"6. c #F58639",
"7. c #F98739",
"8. c #FA8839",
"9. c #F78B39",
"0. c #E38D23",
"q. c #FAB924",
"w. c #F7BE37",
"e. c #FBC13E",
"r. c #B98454",
"t. c #B09762",
"y. c #E69949",
"u. c #F09249",
"i. c #F8BF42",
"p. c #D88E64",
"a. c #D5864B",
"s. c #FBC547",
"d. c #FAC95C",
"f. c #FACC64",
"g. c #1E7B81",
"h. c #207D84",
"j. c #387685",
"k. c #5A6D80",
"l. c #4C7984",
"z. c #567887",
"x. c #942585",
"c. c #9C2A87",
"v. c #9C2A88",
"b. c #8D2280",
"n. c #A23688",
"m. c #A02F80",
"M. c #BD72AD",
"N. c #BD72B0",
"B. c #BB6FAC",
"V. c #B55C9B",
"C. c #C17DB5",
"Z. c #C37DB8",
"A. c #2E878E",
"S. c #32848B",
"D. c #248C91",
"F. c #29979C",
"G. c #339499",
"H. c #2B9CA3",
"J. c #19AAAB",
"K. c #1AB2B3",
"L. c #3BA5AA",
"P. c #26B9B9",
"I. c #3BB9BB",
"U. c #2DA7AB",
"Y. c #1B9399",
"T. c #47868E",
"R. c #5A8793",
"E. c #4E9197",
"W. c #698F93",
"Q. c #629FA7",
"!. c #43AFB4",
"~. c #51ABB1",
"^. c #6DADB4",
"/. c #39BEC0",
"(. c #45BBC0",
"). c #6BBEC3",
"_. c #2ECDCD",
"`. c #29C4C5",
"'. c #34CACA",
"]. c #38D4D4",
"[. c #3BE0DF",
"{. c #3CDEE0",
"}. c #3EF2F4",
"|. c #43C9CA",
" X c #46D8D8",
".X c #56D8D9",
"XX c #50C9CD",
"oX c #6CC9CC",
"OX c #65D5D8",
"+X c #75D1D4",
"@X c #5CDFE0",
"#X c #57EAEC",
"$X c #4DF2F2",
"%X c #49E4E4",
"&X c #68E5E4",
"*X c #76E8E8",
"=X c #76FAFC",
"-X c #6BF5F0",
";X c #9BA88E",
":X c #86BAB3",
">X c #C9839B",
",X c #CF888A",
"<X c #D5B687",
"1X c #C580AC",
"2X c #9BC9AF",
"3X c #84BCC4",
"4X c #84DCDE",
"5X c #8DCCCC",
"6X c #B1DDD1",
"7X c #9CDFE4",
"8X c #8BE5E6",
"9X c #96E7E8",
"0X c #89F8F9",
"qX c #94FCFC",
"wX c #9BF8F8",
"eX c #A4F6F7",
"rX c #A4FDFD",
"tX c #ADFEFD",
"yX c #A8F6F6",
"uX c #B6FCFC",
"iX c #BAF8F8",
"pX c #A2E2E3",
"aX c #D1FBFB",
"sX c #C6FAFA",
"dX c #E8FFFF",
/* pixels */
"n m M M V V n Z ^.^.!.r a =XeX].].H.r t M V S D D G D D % # - , n N S 1 $ 2 5 5 n n n m M M M m < 5 ",
"N M V S S M k.qXtXtXXXE.|.H.OX`.P., 1 k m M V V S A A V < @ - 2 n n t - ; < 6 6 n M C V V V N V m 5 ",
"N N S D S 1 E.yX0X XH.i a i m B 1 - > 1 6 m M m m m M n 1 @ @ - $ - 2 # $ < 6 m C V V V A A A A N 6 ",
", N S D k @ 3 A.].$X*XOX~.j.i k $ $ > < 1 5 6 n n k k k 2 @ @ - > > < - @ @ ; 6 M V S S D S N n < 7 ",
"* W.9XpXOX& & oXrX0X=X=X=X$X(.OXp - - > > < 5 1 5 6 6 5 $ @ $ - - < 5 6 ; - + = % 6 M C n 6 - - - 7 ",
"OXwXaXuX=Xd h  XrXwXtX0X=XI.!.S.& $ $ - > > > > < < < ; @ $ - 2 1 5 n m m k 1 = # $ > 6 - - # - ; l.",
"0XsXdX9X[.h g.`.0XrXeX.X/.A.a # . @ # $ $ % > ; > > % $ + # - > < k m M V A A k @ @ # # @ @ < M m OX",
"#X$X0X&X_.h h `.#X&X'.L.g A D V $ @ @ $ 4 b ^ / ` / / ^ 8 7 > > k m M V D D G V ; > - + + k M M H =X",
"{.%X{._.P.G.4XL.A.G.g B C V V V l 4 I R 8.8.8.7.7.8.8.8.7.7.Y ^ z N M A V S G A 5 6 6 < > 6 6 6 Z ).",
"XX_.U.G.f ).OXf .   - 6 l n n v ' 6.7.7.8.8.8.7.8.7.8.8.8.8.8.8.6.` z 1 < > , k 6 n n k % 2 > k.eXOX",
"G.o o   . & - $ # # + ; ; 7 ` W 8.8.8.7.8.8.7.7.8.8.8.8.7.8.8.8.8.8.R x - - - - < C M k $ @ * 0X9X.X",
"p X $ 2 > > < > ; - $ . 4 Y 8.8.8.8.7.5.>. .+.+.+.+.+.*. .>.8.8.8.8.8.7.` 4 # @ > M 6 > . . E.*X XH.",
"- - > < < 6 6 < < ; % 4 W 5.8.8.8.8. .+.O.O.O.O.O.O.O.O.O.O.+.1.7.8.8.8.8.Y : # $ k l.# - > ^.L.h , ",
", 2 5 6 6 n n 6 6 5 8 W 8.5.8.5.1.O.O.O.O.O.O.O.@.@.O.O.O.O.O.O.+.3.8.8.8.8.Y = z.8XR.7 6 6 7 ; o % ",
"1 < 6 n M M V m k z R 8.8.8.5...O.O.O.O.%.O.O.O.p.R O.O.O.-.-.O.O.%.<.8.8.8.9.U +XwXg n m k 1 - o 7 ",
"t n M V A D A A n ` 8.8.8.5.+.O.O.O.O.O.O.O.O.@.M.] #.O.%.e.f.i.&.%.%.=.8.8.7.7._ h y V M - > m - > ",
"m M V D G G G V x 8.7.8.5.=.%.q.s.w.O.O.%.o.%.p.N.v.:.%.O.%.-.s.d.-.o.%...5.8.8.u.R.r l - @ < 1 @ 5 ",
"1 m A D F G V 5 4.8.8.8. .o.q.f.f.q.O.O.o.%.@.1XN.v.] %.%.o.&.@.e.d.-.O.O.<.8.8.8.t.s = @ > V M - - ",
", - 1 m B k 5 ^ 6.7.5.>.O.&.f.f.e.O.O.O.&.o.p.Z.N.v.v.0.o.%.o.%.O.q.O.O.O.#.5.8.8.5.L : > N A D S V ",
"S k = @ k 5X9Xa.8.7.8.=.O.-.f.s.#.O.O.O.o.&.1XZ.N.v.v.] %.%.%.o.%.#.q.s.O.O.1.5.8.5.I , m m M V A D ",
"A N 1 @ ^.aX5Xu.7.8.3.O.O.&.q.#.O.O.O.o.O.y.Z.Z.M.c.c.c.0.%.o.%.O.O.&.d.q.%.O.5.8.8.4.k k n m M V A ",
"N B > @ g *Xt.u.8.7.=.O.O.O.O.%.O.O.O.%.@.>XZ.1XN.c.c.c.) %.O.O.%.O.O.q.-.O.O.1.8.8.8.b 6 6 6 n n C ",
"n 6 - @ X S.r.8.8.8.=.O.O.O.O.O.%.O.O.O.y.N.1X1XN.c.c.c.c.X.O.%.O.O.O.O.O.O.O.*.5.8.8./ > < 1 6 6 6 ",
"1 - $ . ; 5 R 8.8.5.O.O.O.%.O.O.O.O.O.O.>XZ.1X1XN.c.c.c.c.) O.O.O.O.O.O.O.O.O.#.5.8.8.` > > < < 5 5 ",
"2 $ @ o 1 :Xu.9.8.2.O.O.O.O.O.O.o.%.%.y.Z.Z.1X1XN.c.v.v.v.c.X.O.O.O.O.O.O.O.O.o.5.8.8.{ - $ - - % 7 ",
"@ o . r #X*Xu.8.8.1.%.O.O.O.O.O.%.%.&.,X1XZ.1XN.N.c.v.v.v.v.[ O.O.O.O.O.O.O.O.O.>.8.8.R # # # $ # $ ",
"K B . H.}.&X8.8.8.2.O.O.O.O.O.O.o.%.;.V.Z.Z.N.Z.N.c.c.v.c.x.~ O.O.O.O.O.O.O.O.O.>.8.8.W @ o @ o - Z ",
"uXOXj.a }.-X8.8.8.1.O.O.O.O.O.O.%.o.&.] v.n.V.B.N.c.~ w q 0 U O.O.O.O.O.O.O.O.O.>.8.8.{ $ # K 5XyXuX",
"aX`./.l j.~.u.5.5.2.O.O.O.O.o.O.o.%.o.X.c.c.c.c.v.q 0 0 0 e $.o.O.O.O.O.O.O.O.O.>.8.7.Y 1 oXqXwXuXsX",
"iX`.].d uX^.{ 5.8.5.o.O.%.O.O.O.%.o.%.o.[ c.c.c.x.0 0 0 0 E O.O.O.O.O.O.O.O.O.+.8.7.8.` z.qXrXeXiXaX",
"+XP._.y XX!.r.9.8.8.+.O.O.O.o.%.o.%.o.%.X.! c.c.x.0 0 0 9 +.O.O.%.O.O.O.O.O.O...8.8.7.^ (.*X&X*X*X8X",
"].K.P.: ).Z _ 8.6.5. .O.O.O.%.O.%.o.%.o.O.} c.c.x.0 0 0 E O.o.O.O.O.O.O.O.O.O.2.8.8.u.v XX.X@X@X@XOX",
"OXJ.g.~.7X(.z 4.5.8.5.o.O.O.O.O.O.%.O.O.O.$.! c.x.0 0 Q O.O.O.O.O.O.%.O.O.O.#.9.7.7.{ V  X X X.X.XXX",
"h j r L.g.s & T 8.8.7.=.O.O.%.O.%.O.O.O.%.o.Y c.x.0 0 E O.O.O.O.O.O.O.O.O.%.<.8.8.7.` B _._.].]. X!.",
"p < & * & $ $ x 8.8.8.,.O.O.O.O.O.O.O.O.O.%.$.! ! 0 Q O.O.O.O.O.O.O.O.O.O.+.5.7.8.6.z > j.J.K.K.J.s ",
"l z : = $ ; > > { 8.8.8.3.O.%.O.O.O.O.O.O.O.O.Y x.q | O.O.O.O.%.O.O.O.O.o.>.8.8.8.I + + @ , r d d ; ",
"5 4 $ > > > 7 < v 6.5.7.8. .O.%.O.O.O.O.O.O.O.+.! Q O.O.O.O.O.O.O.O.O.O.1.8.7.7.R O u Q.~.D.3 < m 7 ",
"E.& > 5 5 1 6 6 ; I 8.8.8.5...O.O.O.O.O.O.O.O.O.:.| O.O.O.O.O.O.O.O.O.1.8.7.7.u.c t pXeX&X_.f Q.).3X",
"'.2 1 6 6 6 n 6 % # ' 8.8.8.5.1.O.O.O.O.O.O.O.O.O.O.O.O.O.O.O.O.O.o.2.8.8.8.7.' : ~.&X8X&X%XH.E.uX*X",
"r $ 6 n M n n m ; # 4 { 8.8.8.8.2.=.O.O.O.O.O.O.O.O.O.O.O.O.O.O.*.5.7.7.8.7.<XiXd '. X.X XD.a t ~.a ",
"- # n m C m M m # # - 5 Y 5.8.8.8.8.2.*.O.O.O.O.O.O.O.O.o.O...2.7.5.7.8.6.<XoXoXa Y.`.U.j.3 n < $ % ",
", $ 6 C V C m $ + # $ ; 5 ` 7.8.8.8.8.8.5.>. ...=.*...3.2.8.8.8.8.7.7.4.c ~.h p = , B M N S - $ > 7 ",
"1 @ > M n > $ @ + # # ; > 5 c { 5.8.8.7.5.7.8.7.8.7.8.8.8.8.6.8.7.8.Y 8 - * . $ ; 1 k M V V ; 6 5 5 ",
"t @ @ $ @ # @ # + + + # - > 7 5 ^ R 7.8.7.8.8.8.7.8.8.8.8.8.8.6.{ c > ; - = + # : > k l M m < M m C ",
"1 @ @ @ $ $ > $ = - + X X @ - R.^.2XP I R 7.8.8.8.>.5.8.4.{ ` v l 5 5 > > - @ + $ - > < 1 < > V A C ",
"2 $ - - $ - > > - - - #   o l.qXrXsX*X. R.6X6X2X2X:X;XW.z M m m m m 6 6 < $ @ # $ $ $ $ - @ # M 6 7 ",
"2 - > ; > < > > > > > - .   r XXOX|.E.W.*X0XwX&X@XT.Q.Z l C V V V N m n > # $ $ $ > > ; > > X < $ % ",
", > > > < 1 5 1 < < > - . = L Q.OX.Xl.W._.[.%X.XI.X O   k A D D S A M 5 $ @ $ - - > > < < < - X # % ",
"1 1 6 6 n n 6 n > - > @ @ 7XrXrXwXqX0Xa Y.D.f y Z D F < > V A A A m 1 < # $ - - > < < < 6 6 6 @ # % ",
"t 6 n m m m M 5 > > - . l.rXuXuXwX-XL.* X t A F J J J V # < 6 k k m V 1 # - 2 < < 6 n k n n n 5 # 7 "
};
