/* XPM */
static char *result[] = {
/* columns rows colors chars-per-pixel */
"50 50 220 2 ",
"   c #151A1C",
".  c #171E22",
"X  c #1A2A2F",
"o  c #242B2E",
"O  c #21252C",
"+  c #292838",
"@  c #2E3A3E",
"#  c #2C3438",
"$  c #323B3C",
"%  c #353937",
"&  c #51320D",
"*  c #493516",
"=  c #4A351B",
"-  c #4E3A1D",
";  c #473116",
":  c #573A17",
">  c #4E330D",
",  c #633E19",
"<  c #493924",
"1  c #513D25",
"2  c #68441C",
"3  c #504736",
"4  c #56412A",
"5  c #6C4822",
"6  c #754D24",
"7  c #7B4E28",
"8  c #7C532A",
"9  c #795026",
"0  c #2E2B43",
"q  c #312D46",
"w  c #322F49",
"e  c #3A2F4A",
"r  c #2F3C41",
"t  c #2B3A49",
"y  c #333346",
"u  c #323D41",
"i  c #34334C",
"p  c #3B334D",
"a  c #393C4D",
"s  c #353A4A",
"d  c #3A3651",
"f  c #353A53",
"g  c #3D3A55",
"h  c #3B3C59",
"j  c #333652",
"k  c #443A55",
"l  c #423E5A",
"z  c #403551",
"x  c #41384D",
"c  c #1D4345",
"v  c #2A4345",
"b  c #354244",
"n  c #394446",
"m  c #3A4649",
"M  c #3D4A4D",
"N  c #35474A",
"B  c #284756",
"V  c #3D425A",
"C  c #385659",
"Z  c #275460",
"A  c #3A5367",
"S  c #1E6E76",
"D  c #37616A",
"F  c #26747B",
"G  c #2C6A75",
"H  c #0D5B62",
"J  c #434B4B",
"K  c #434F52",
"L  c #44425C",
"P  c #47475D",
"I  c #445154",
"U  c #495354",
"Y  c #4B5659",
"T  c #4E595C",
"R  c #525C5E",
"E  c #534E4C",
"W  c #5F625D",
"Q  c #61635D",
"!  c #6C6355",
"~  c #464461",
"^  c #4A4663",
"/  c #4D4965",
"(  c #4D4B69",
")  c #444B64",
"_  c #514D6A",
"`  c #534866",
"'  c #4B5964",
"]  c #515D60",
"[  c #55506E",
"{  c #565371",
"}  c #595473",
"|  c #465A73",
" . c #5D6A6D",
".. c #576468",
"X. c #5F6C70",
"o. c #4E6F77",
"O. c #666560",
"+. c #616E71",
"@. c #6B797C",
"#. c #667377",
"$. c #655C4E",
"%. c #8E5E2F",
"&. c #83572D",
"*. c #8E5F30",
"=. c #845834",
"-. c #905F31",
";. c #9D6C3B",
":. c #936433",
">. c #8F6334",
",. c #A06D3D",
"<. c #AE743D",
"1. c #A1703F",
"2. c #B0753E",
"3. c #B3783F",
"4. c #AD7C4E",
"5. c #AB7746",
"6. c #B37740",
"7. c #B57A42",
"8. c #B97D44",
"9. c #B47E4D",
"0. c #AD7C50",
"q. c #B67F50",
"w. c #9C6D40",
"e. c #BD8047",
"r. c #B5804D",
"t. c #BD824C",
"y. c #B78454",
"u. c #C5854B",
"i. c #C5864C",
"p. c #CD8D51",
"a. c #C38E5D",
"s. c #C4905E",
"d. c #CC915A",
"f. c #D5965A",
"g. c #D7975B",
"h. c #D18F55",
"j. c #CC9662",
"k. c #C89363",
"l. c #D59A62",
"z. c #DF9D61",
"x. c #E09E62",
"c. c #E4A66B",
"v. c #E7AC73",
"b. c #F2B57D",
"n. c #EBB27C",
"m. c #DAA06C",
"M. c #1E7B81",
"N. c #207D83",
"B. c #377A85",
"V. c #5A6D80",
"C. c #6E7D81",
"Z. c #717F83",
"A. c #2F8E92",
"S. c #2A9CA1",
"D. c #19ABAC",
"F. c #39A8AD",
"G. c #26B9B9",
"H. c #2EA3A6",
"J. c #478F98",
"K. c #728184",
"L. c #758589",
"P. c #79868B",
"I. c #7B898D",
"U. c #77898C",
"Y. c #7E8D92",
"T. c #638F99",
"R. c #5E9FA1",
"E. c #4FAAB0",
"W. c #6CADB6",
"Q. c #45BBC0",
"!. c #62BEC1",
"~. c #2CC6C6",
"^. c #35C9C9",
"/. c #38D5D5",
"(. c #3CDEE0",
"). c #3FE4E3",
"_. c #46D7D7",
"`. c #54D8DA",
"'. c #4ACACD",
"]. c #65D5D8",
"[. c #6ED3D5",
"{. c #4DF2F2",
"}. c #4FE6E6",
"|. c #68E5E6",
" X c #74FBFC",
".X c #72EFF0",
"XX c #808F93",
"oX c #829195",
"OX c #859499",
"+X c #8B999D",
"@X c #88979C",
"#X c #8D9DA1",
"$X c #919EA2",
"%X c #93A1A6",
"&X c #9BA9AD",
"*X c #98A5AA",
"=X c #9BADB1",
"-X c #92ACB1",
";X c #A1AEB3",
":X c #A7B4B9",
">X c #A5B4B9",
",X c #F8BC84",
"<X c #FBC088",
"1X c #AABDC2",
"2X c #84BCC4",
"3X c #AEC3C8",
"4X c #BAD2D7",
"5X c #95DEE2",
"6X c #98E7E7",
"7X c #89F7F7",
"8X c #99F6F6",
"9X c #89E8E8",
"0X c #A7FAFA",
"qX c #B8FAFB",
"wX c #A6E0E1",
"eX c #96D8D9",
"rX c #C2D8DD",
"tX c #D1FAFB",
"yX c #C7F7F8",
"uX c #E8FFFF",
/* pixels */
"~ ^ / ( _ _ ~ ) W.W.E.B D 7X0X/.^.S.B ~ ( ( / P / Y P / y 0 i f ~ ( { h e j k l l ~ ~ ` ` ^ / / h z ",
"( ( _ { [ _ V.8X0X0X'.J._.S.`.~.G.f s s u N M K Y Y U K M n @ u m L V j d d l l ~ ` / / _ _ _ _ ~ k ",
"( _ { } } h J.0X9X}.H.A A ~ ~ ~ i r m ] @.OX-X>X=X&X*X*X+XI.#.T M u s 0 w d l ~ ` ` _ [ _ { _ _ ( k ",
"f / { } l w t A./.{.|.[.E.B.A V r C.1X4X4X4X3X3X=X%X%X*X&X;X;X&XOX@.u p 0 0 d l ^ [ [ } } } _ ~ h k ",
"t T.wX6X].t t [.8X7X X X{.{.'.E.m OX3X;X%X#XOXY.oXoXoXoXOXOX+X*X$XXXm g j e 0 q j l / _ ~ l j j j d ",
"].8XtXqX XD F _.0X0X0XR.o.A.E.B.@ C.oXoXY.Y.Y.OXoXoXoXoXoXoXOXOXXXC.u ~ ~ m s y w e d h w w w e i V.",
"7XyXuX9X_.F M.~.7X8Xo.M ..b M + o m Y.oXY.OXOXY.oXoXOXXXoXoXoXoXY.m o k L u R M 0 0 0 w 0 0 h / ( ].",
"{.{.7X|.^.M.S ~.}.D Y #X>X#.$ . @ u ..oXOXY.L.@.+.+.+.@.L.oXoXoX..b $ . @ @.&XXXI r y 0 0 ~ ^ / |  X",
"(.}.(.^.G.S.5XF.Z M @X4X3XY.I u ] M n X. .I m b $ % $ b m U  .X.n I R b I *X&XoXK.M s g j h l ~ ) !.",
"'.^.G.A.G !.].B n $XrX=XOXY.K.v Y W I $ % < * & & & & & * - % u K T Y $ L.>X+XoXoXI.b a e d d V.0X].",
"A.+ + + + t i u K.4X>XY.oXoXY.Y M ] E 4 : 8 1.t.y.E y.r.1.&.: 4 E R M Y &X&XOXoXoXoX#.s w w w 9X8X`.",
"Z + 0 e d d u  .3X3XOXOXoXoXI.J n 4 : ,.l.b.<X,Xl.R j.c.x.g.d.;.: 1 J M OX:X$XXXoXoXXX .# + J..X'.S.",
"j j d h h p m +X3XY.oXoXoXoXT % * 2 &.v.,Xb.c.c.f.R j.z.z.z.z.g.$.5 = $ ] $X;X+XoXI.oXP.m s W.F.F f ",
"j d k l l r +.;X-XY.oXoXoXT % * &.d.>.n.c.c.z.g.j.R j.z.z.z.c.l.O.a.8 = % T =X=XP.oXU.+...u z p + e ",
"h h l ~ L u +X;XOXoXoXoX@.% * &.m.v.&.l.g.x.z.z.j.R j.z.z.z.g.g.O.k.f.8 = u Z.;X#XU.K.U.I.u f i + p ",
"l ~ / _ m ..&X$XoXoXoXI.M % 2 g.,Xm.&.g.z.z.z.z.j.R l.z.z.g.c.l.O.s.z.f.2 < J oXOXY.U.Y.Y...u / e g ",
"~ / _ { m ..+XOXoXoXY...% : 7.b.b.d.=.g.z.z.z.z.d.R j.x.z.x.z.l.Q s.x.x.7.* $ ..oXoXoXI.Y...u g + g ",
"h / { } [ $ b n N N n $ < 8 c.<Xc.s.! l.z.z.z.z.d.R l.g.f.h.f.d.Q s.x.x.x.8 < u n m m n n @ ^ ^ i e ",
"f w V / P L X n K K M U - t.b.b.z.s.Q l.z.z.x.g.s.T r.i.u.u.u.t.Q y.g.c.z.i.- U K I I n O P [ { } ` ",
"{ ~ q q A -X. I R R W E : z.,Xc.z.k.O.l.c.g.p.u.r...r.i.u.u.u.t.W 4.p.g.z.x.: 3 R R R I   ^ ( [ } } ",
"{ ( h 0 ' T # v b n U 3 8 v.,Xc.z.k.O.l.f.i.u.u.r.R r.u.u.u.u.t.Q 0.u.p.g.z.6 3 Y n b b # u a P _ [ ",
"( ~ d r Y @.@.@.@.W b < :.b.b.g.z.k.Q t.i.i.u.u.r.R 9.u.u.u.u.t.Q 4.i.u.u.h.*.1 u ] @.@.@.@.Y u ~ ` ",
"~ l i r K.&XoXoXXXOXn * ;.,Xv.x.z.s.W t.i.i.i.i.r.R 9.u.u.u.i.t.W 0.u.u.u.u.-.= n +X%XoXoXoX@.r l l ",
"h i w @ I.>XoXoXoXXXN * 1.<Xc.x.l.r.W t.i.i.i.i.r.R 9.i.i.u.u.u.Q 4.u.u.u.u.*.* M $X&XoXoXoXK.$ g k ",
"j w 0 # I.>XXXoXoXoXn = ;.c.x.x.p.0.O.t.u.u.i.u.r.] 9.i.i.u.i.t.Q 0.u.u.u.u.*.* m $X=XoXI.oXZ.r e p ",
"0 + + r I.>XoXoXoXoXn = ;.z.x.g.u.0.Q t.u.u.u.u.r.] q.i.i.u.u.t.Q 0.u.u.u.u.*.* m $X&XY.L.oXZ.u q w ",
"| ) # N I.:XoXoXoXoXm = ,.c.g.p.u.0.Q t.u.u.u.u.r.] 9.u.u.u.u.t.Q 0.u.u.u.u.-.= m $X&XY.C.Y.@.$ y ' ",
"0X].G u I.:XoXoXoXoXn = ,.g.g.i.u.0.Q u.u.i.u.u.r.] 9.i.u.u.u.t.Q 0.u.u.u.u.*.* m $X&XL.Y.Y.C.N 6XqX",
"tX~.F.u Y.:XXXXXoXoXn = ,.z.h.u.u.0.W q.u.u.u.u.9.] 9.u.u.u.u.8.Q 0.u.u.i.u.>.* m $X&XXXU.L.C.N 5XyX",
"qX~.~.$ P.:XXXOXoXoXn = ,.x.p.u.u.0.Q t.u.u.u.u.9.] q.6.&.7 5.t.W 9.u.u.i.u.%.* m $X&XP.K.C.K.N wXtX",
"[.G.~.u ] P.Z.Z.K.+.b - ,.g.u.u.u.4.Q u.u.u.u.u.9.] 5.7 , , 6 5.Q 9.u.u.u.u.-.= b +.K.Z.K.K...C [.6X",
"_.D.G.y C $ $ u u $ I - 1.g.u.u.u.9.Q q.u.u.u.u.9.R w.6 & & 5 ,.R 9.u.u.u.u.%.- U b $ u $ v C E.|.].",
"].D.F E.eXc # Y T T R 1 ;.f.i.u.u.0.Q t.i.u.u.u.q.R 5.8 2 2 6 5.W 4.i.u.u.u.>.- ] R T T # v _.`.`.`.",
"M.H B F.N.X # T T T R 1 ;.p.i.u.u.4.W t.u.i.u.u.9.] q.6.&.&.<.e.Q 4.u.u.u.i.%.- ] R T T $ c ^././.E.",
"Z x s t $ m m m n u J - ,.p.u.u.u.4.O.t.u.u.u.u.q.] 9.i.u.u.u.u.Q 4.u.u.u.u.*.- J b m n m N N A.D.S ",
"P P e @ +.OXY.I.I.Z.b = ,.i.u.u.u.4.W t.u.u.u.u.9.] 9.u.u.u.u.t.Q 4.u.i.u.u.*.= u K.OXI.I.I...@ D e ",
"k x y r I.>XOXXXoXoXm = ,.i.i.i.u.9.W t.u.u.i.i.9.] r.u.u.u.i.t.Q 0.u.i.u.u.-.* n $X*XoXoXoXC.u k x ",
"J.s a @ P.>XXXoXoXoXm = ;.i.u.i.u.4.Q t.u.u.u.8.9.] r.u.u.u.i.t.Q 4.u.u.u.u.*.* m $X&XoXoXoXK.b W.2X",
"^.f g @ I.:XOXOXoXoXn = ;.i.u.u.u.4.Q t.u.u.8.2.4.T r.i.u.u.u.t.W 0.u.i.i.u.>.* m $X&XoXoXoXK.v wX|.",
"B w l $ I.:XXXXXoXoXn * ;.u.i.u.i.4.Q t.u.u.u.<.9.T r.i.u.u.u.t.Q 0.u.u.u.u.%.* n $X&XoXoXoXZ.u E.D ",
"i q l u I.:XoXoXoXoXm = ;.u.u.u.i.4.W r.i.u.8.2.9.] 9.u.i.i.i.t.W 4.7.i.i.i.%.= m %X&XoXP.oXK.$ w e ",
"f q l u I.:XoXoXoXoXm = -.u.u.u.i.4.W e.u.i.u.<.4.] q.u.i.i.i.t.W 4.<.i.i.i.%.; n $X&XXXL.oXZ.r d z ",
"h 0 a u I.:XoXoXoXoXn = -.u.u.u.i.4.O.t.8.u.u.2.9.] 9.u.u.u.3.e.W 4.<.i.t.i.%.* n $X&XXX@.Y.C.u k k ",
"V 0 0 $ I.:XoXoXoXoXm = %.8.u.u.i.0.W t.3.8.8.2.9.] 9.u.u.u.<.e.W 4.<.i.i.i.>.* m %X&XI.Y.Y.@.u l ` ",
"h 0 0 r I.>XoXoXoXoXN = -.<.e.u.3.4.Q t.3.e.e.<.4.] r.i.i.i.<.r.W 4.<.i.e.e.%.* n $X&XoXU.L.K.r ` ^ ",
"j w w @ P.;XoXoXoXOXn * %.<.e.e.3.0.W t.6.e.e.<.9.T q.7.e.i.<.r.W 0.<.t.e.2.%.* M +X*XL.L.C.K.u l z ",
"j i i u T K.K.C.Z.+.b = %.<.e.e.<.0.Q t.6.t.u.<.9.] 9.3.7.i.<.r.W 4.2.i.8.7.*.* u  .K.Z.K.Z.] r e e ",
"h d d p u @ @ b $ $ J - %.<.e.u.2.9.Q t.2.e.t.<.9.] 9.2.e.i.2.t.W 4.<.i.8.7.*.- J b u u r @ y # 0 z ",
"h g l l L O # Y T T R - -.7.u.e.8.4.W t.8.i.u.3.9.R r.e.e.u.8.e.Q 4.8.u.u.8.%.- R T T T # O l 0 0 z ",
"h l ~ ^ / y   O o o o ; 2 8 6 6 6 6 4 6 6 9 6 6 6 1 5 6 6 6 6 6 4 5 6 6 6 6 2 * o o o o   # ~ k + z "
};
