/* XPM */
static char *wall1708384213[] = {
/* columns rows colors chars-per-pixel */
"50 50 251 2 ",
"   c #074B98",
".  c #095C96",
"X  c #0C649B",
"o  c #13679A",
"O  c #0857A7",
"+  c #0A5EB2",
"@  c #125EA3",
"#  c #0C68A6",
"$  c #1169AA",
"%  c #0D73AA",
"&  c #1272AB",
"*  c #1677A9",
"=  c #016EB4",
"-  c #0766B8",
";  c #136BB7",
":  c #0172B5",
">  c #0273BC",
",  c #037ABD",
"<  c #0B76B8",
"1  c #157BB5",
"2  c #157DBC",
"3  c #1779B7",
"4  c #2D74AF",
"5  c #046EC3",
"6  c #0B6CC3",
"7  c #0667C0",
"8  c #0275C4",
"9  c #027CC3",
"0  c #0C74CB",
"q  c #037DCB",
"w  c #0C7BCD",
"e  c #0576C8",
"r  c #1579C9",
"t  c #0B7CD3",
"y  c #0479D3",
"u  c #127CD2",
"i  c #167ED9",
"p  c #1169C0",
"a  c #0884BA",
"s  c #1984BC",
"d  c #1684B9",
"f  c #2589BE",
"g  c #3F8AB4",
"h  c #5593BC",
"j  c #0183CC",
"k  c #0A87C8",
"l  c #1A85C3",
"z  c #1B8BCA",
"x  c #1786C6",
"c  c #0C93CC",
"v  c #1A94C8",
"b  c #0284D2",
"n  c #0C83D3",
"m  c #038AD4",
"M  c #0A86DB",
"N  c #028BDB",
"B  c #0C89DD",
"V  c #0787D7",
"C  c #1384D4",
"Z  c #148AD5",
"A  c #158BD9",
"S  c #1A8DDB",
"D  c #1B87D5",
"F  c #0D9CD5",
"G  c #0B93D8",
"H  c #1595DD",
"J  c #1C93DE",
"K  c #1B9BDE",
"L  c #1699D7",
"P  c #2688CA",
"I  c #2397CA",
"U  c #248BD7",
"Y  c #2597D9",
"T  c #3499D8",
"R  c #358FC9",
"E  c #0DA3DA",
"W  c #13A4DB",
"Q  c #17A5DD",
"!  c #2CABDC",
"~  c #24A5D8",
"^  c #37A2DD",
"/  c #0E8CE1",
"(  c #018CEC",
")  c #118FE4",
"_  c #0B94E4",
"`  c #0492EE",
"'  c #0896E9",
"]  c #1392E5",
"[  c #1D94E1",
"{  c #1C9CE1",
"}  c #1694E9",
"|  c #199AEC",
" . c #1698EB",
".. c #0692F0",
"X. c #0A96F3",
"o. c #0C9AF4",
"O. c #099DF6",
"+. c #139DF7",
"@. c #2195E3",
"#. c #249BE5",
"$. c #249EEA",
"%. c #2A9DE9",
"&. c #2B9EE5",
"*. c #218FE3",
"=. c #1BA3E3",
"-. c #13ACE2",
";. c #1BABE5",
":. c #19A6E7",
">. c #1DBBEC",
",. c #18B5E9",
"<. c #0BACF4",
"1. c #0AA4F2",
"2. c #1AA8F3",
"3. c #0BB4F5",
"4. c #09BBF7",
"5. c #1CBCF5",
"6. c #14BDF8",
"7. c #15B5F5",
"8. c #0EAFE2",
"9. c #24A3E5",
"0. c #2AABE6",
"q. c #2AA3EA",
"w. c #23ACEA",
"e. c #2CADEB",
"r. c #27A6E6",
"t. c #34A8E9",
"y. c #2CBBEE",
"u. c #27B5EB",
"i. c #33B5EC",
"p. c #3BBCED",
"a. c #35B7E9",
"s. c #2BA6F2",
"d. c #21AEF2",
"f. c #2BAAF7",
"g. c #34AAF4",
"h. c #22BBF6",
"j. c #23BFF8",
"k. c #29B7F8",
"l. c #3BB4F3",
"z. c #34BCF2",
"x. c #34B2FE",
"c. c #3BB4FD",
"v. c #34BBFD",
"b. c #3CBCFC",
"n. c #35B6F2",
"m. c #469BD3",
"M. c #55ACDB",
"N. c #69B0D8",
"B. c #44BDED",
"V. c #58B9E7",
"C. c #44BCFC",
"Z. c #4ABDFF",
"A. c #45B6F6",
"S. c #4EB0EC",
"D. c #64B4E4",
"F. c #67BFF5",
"G. c #09C6F9",
"H. c #1CC4F4",
"J. c #1CC4F9",
"K. c #1CCAFB",
"L. c #16C7F9",
"P. c #19D2FC",
"I. c #1AC1EE",
"U. c #3AC3ED",
"Y. c #2CC4F4",
"T. c #24CAF5",
"R. c #23C4FA",
"E. c #23CCFB",
"W. c #28C9F5",
"Q. c #33C4F4",
"!. c #3AC5F4",
"~. c #36CAF5",
"^. c #3ACCFA",
"/. c #38C8FA",
"(. c #24D3FD",
"). c #2CD4FB",
"_. c #24DBFE",
"`. c #2CDBFE",
"'. c #2FD0F7",
"]. c #34D3FB",
"[. c #3BD3FB",
"{. c #34DAFD",
"}. c #3CDBFC",
"|. c #2EC1EF",
" X c #39E2FE",
".X c #41C2EF",
"XX c #56C2EB",
"oX c #45C4F2",
"OX c #44C3FE",
"+X c #4AC4FE",
"@X c #44CAFD",
"#X c #4CCCFE",
"$X c #48C9F4",
"%X c #53C2FF",
"&X c #52CDFE",
"*X c #56C8F7",
"=X c #43DCFD",
"-X c #4AD5FC",
";X c #54D3FD",
":X c #54DAFF",
">X c #5BDAFD",
",X c #5BD5FF",
"<X c #68CAF9",
"1X c #74CBF7",
"2X c #6CD3FD",
"3X c #66DAFF",
"4X c #74D3FE",
"5X c #7AD3FF",
"6X c #74DBFB",
"7X c #6DC3E8",
"8X c #43E3FE",
"9X c #4CE4FE",
"0X c #45EAFF",
"qX c #4CECFF",
"wX c #5BE3FE",
"eX c #55E7FF",
"rX c #52F0FF",
"tX c #5AF2FF",
"yX c #62EAFF",
"uX c #69E9FE",
"iX c #74E4FE",
"pX c #78E9FE",
"aX c #66F5FF",
"sX c #79F2FF",
"dX c #84BCE4",
"fX c #89B7D7",
"gX c #86D8FA",
"hX c #92DDFE",
"jX c #9FDEF9",
"kX c #89CDEB",
"lX c #87E8FE",
"zX c #9BE3FE",
"xX c #9DEAFF",
"cX c #94E6FC",
"vX c #97F5FF",
"bX c #8EF2FF",
"nX c #A3E5FF",
"mX c #ACEAFF",
"MX c #A8E8FE",
"NX c #B3EBFE",
"BX c #BDE8FA",
"VX c #ACF3FF",
"CX c #A4F3FF",
"ZX c #B2F4FF",
"AX c #BAF6FF",
"SX c #ACD3EB",
"DX c #C9F8FF",
"FX c #D8F7FE",
"GX c #C8ECFB",
"HX c #E5FAFE",
"JX c #F2FCFE",
/* pixels */
"!.5.-.F c a Y K %X:X).'.].].'./././.!.z.e.q.%.@.g.Z.b.b.>XeX8X X{.`.(.T.I.I.:X>X>X,X;X*X.XU..XU..X$X",
"~.7.8.c k , H r.3X[.'.'.~.~././.Q.z.z.g.%.%.[ @.s.c.c.&X:X}. X{.).).T.I.I.I.u.;X>X;X;X#Xp.a.a.a.U.U.",
"a.,.E c a k K %X>XW.W.W.Y.Y.z.z.z.i.q.%.%.@.[ [ A.%XOX-X].`.`.).T.T.T.u.,.8.8.|.;X&X&X#X$X! ! ! ~ ! ",
"! 8.F c a K l.2X$XT.Y.|.Y.z.z.i.e.$.%.@.#.@.[ G n.3X@X].(.(.'.W.T.|.I.,.,.8.W W oX&X#X#X$X~ v I I ~ ",
"I -.F k v t.2X6XY.|.h.y.y.u.e.q.#.#.@.@.@.J G ' 2./.[.P.T.T.W.T.I.u.>.,.Q W F F K #X#X+XOXt.d v v f ",
"z =.F c 0.<XzXlXU.u.u.w.e.e.#.@.@.@.@.*.J Z j _ x.OX'.I.H.I.I.>.>.>.,.Q W L F c k 9.+XOXOXb.d d d d ",
"J S S Y M.kXDX6XXXa.w.9.#.[ [ J [ [ [ S D 9 j ] s.c.W.I.I.>.>.;.,.Q Q L F F k : = > l.OXOX$Xs * d d ",
"D C C ^ N.fXFXMX1XB.9.K A S S S S S A A 9 j m H s.c.I.,.8.-.,.Q Q W L F c < = = = > Z K r.$XI % a v ",
"u r p T M.fXGXMX7X^ K D A A S A A A A a > j N H #.f.,.8.8.-.W W F L c k = = = = , 9 j j N U.Y n c Z ",
"p - ; P ^ N.N.N.^ I Z Z n Z Z Z Z Z x : 9 j m x Y s.8.E E F F F c k < > = = = , , , , j m XX<XD Z C ",
"r - O s T R m.R U C n n n n n n n z = > 8 q b 2 z Y E F F c c k < : = = = > > 9 > , j j H cXgXq.#.#.",
"&.Y l l I P f 1 x q w j n n n n Z : = > 8 y 8 % r l % a c c , : = = = : : > w < > , j j <XMXcXc.s.q.",
"s.9.v v d d 1 % 2 8 e e e e Z v < = = 5 5 y # X o . . X X # = : > : > > 9 k k : > a j S.MXZXxX%Xx.x.",
"x.s.~ v v d 1 # 2 n C u C C C C k > 5 5 6 0 . . . . X X X # # % < 9 w n M Y : : , j G hXmXAXVX4XZ.b.",
"c.x.0.Q v d v d D D i u u u u n w e u r 4 4 o o . o X # o $ $ * & 3 z #.q.1 : > 9 j 7XzXMXAXAXCX4X%X",
"Z.Q.y.u.;.~ ! ! i u u u u w w u 0 i T m.N.h 4 * o o o % & & & & & 3 1 f s : , 9 q t.gXcXMXDXDXDXnX5X",
"%X^.Y.y.u.! a.a.i u p 0 0 0 r 0 0 U M.dXSXfXh g f o * & & * 3 1 1 1 1 1 2 , , j Z 4X5XhXzXvXCXDXVXgX",
"@X}.[.Q.|.0..X.Xi p p p p 6 0 0 r D.GXFXJXHXFXNXcXkXM.f 3 1 2 s s s s s s 9 j b B.<X1XgXcXaXsXbXsXwX",
"[.].[.].|.|.$XoXT + + + p p 6 U kXDXFXFXFXFXmXxXxXxXnXCX6XN.P s l l l l s j j { Z.<X<X5XuXrXwXyXwX=X",
"~.~.Q.~.'.~.$XoXZ.@ O O + ; D.zXlXuXyXyXsXuXuXpXbXxXCXCXVXVXVXgXV.I v z z k m s.Z.Z.<X<XqX8XqX=X=X=X",
"~.Q.y.i.;.:.$X$XB.P     $ B.:X`._._.{.8X9X8X{.`._.=XpXCXAXVXCX6XOXv.Y P Y q._ f.C.Z.Z.:X9X8X8X=X[.[.",
"!.z.z.e.#.N $XoXoX^   @ ^ :X`._._._.`.`.{.`.`.).(._.P.(.eXiX/.Q.v.v.z.t.g.g.q.f.x.A.C.eX9X8X=X}.^.^.",
"z.y.e.9.K m i.oXB.a.  T :X{.P.(._.(.(.`._.).(.(.(.(.E.E.E./.b.v.v.b.%X<XD.S.S.<X5XhXNXAXxXwX}.@X~./.",
"i.r.9.#.K j =.B.p.a.T ,X].(.P.E.P.(.(.E.(.(.E.(.E.E.K.R.J./.v.v.b.+XgXGXNXmXMXMXmXNXAXZXZXlX@X~.!.U.",
"q.9.#.Y { m G p.p.p.;X[.K.K.K.E.E.E.R.E.E.E.R.R.R.R.R.R.H.v.k.k.v.5XFXFXZXpX}.`._.P.P.G.^.+X+XoX!.a.",
"r.#.#.{ K m N i.p.#X[.J.J.H.R.J.R.R.R.R.R.R.R.R.j.R.5.j.5.k.x.k.+XxXbXbXpX9X_.P.P.G.G.G.G.b.+XC.i.e.",
"9.=.{ K K c ' d.OX@X5.5.5.5.5.5.j.j.j.j.k.R.h.h.h.j.h.d.7.k.k.k.>XeX9XwX9X{.P.P.G.G.G.G.4.6.OXC.n.w.",
"9.=.K K H G ' /./.7.,.5.5.5.k.5.h.5.h.h.k.k.k.k.k.2.d.5.2.d.d.b.>X`.{.{.).E.K.L.G.G.4.4.4.4.k.C.n.w.",
"9.=.K K H t.v.b.] / ) ) } | | | 2.2.d.d.d.d.d.d.d.d.d.d.2.9.d.;X{.(.(.E.K.L.L.L.G.4.4.3.3.3.7.c.C.w.",
";.=.W K K oX/.9./ / ) ) ) } } } } } } } | | | | | | } } [ { i.-X(.K.K.J.J.L.6.6.4.3.3.3.<.<.7.2.l.f.",
";.=.=.W e./.[.:.M / / / ) ) ) } } } } } } } } } } ] ] ] H K @X'.K.J.J.J.6.6.3.3.3.<.<.<.<.<.1.H q.n.",
";.;.=.Q oX~.^.:.M / / / ) ) ) ) ) } } } } } } ] } ] ) ) H r./.L.6.6.6.6.6.<.3.<.<.<.1.1.1.1.] [ { e.",
"K L S ^ *XU.~.e.B M / / / / / _ / ) ) } ) } ) ) } ) ) ..1.v.J.6.6.6.7.3.7.<.1.1.' ..` ` ..' K { 9.r.",
"r l l T $XU.U.a.{ M M / M / / / / / ) ) ) ) ) ) ) / ' O.2.&X3.3.<.1.O.X.` ( ( ( ( ( ` ..` ] K 9.0.t.",
"3 r r P a.|.z.%.t.[ B M M / / / / / / / / / / / B / ( N *X*X..( ( ( ( ( ( ( ( ( ( ( ...._ [ { 9.0.i.",
"; ; 3 r r.a.q.%.%.q.] V M M / M M / / / / / M t M N y j 1XA.( ( ( ( ( ( ( ( ( ( ` ( .. .H { =.0.t.a.",
"$ - 3 C ~ 0.@.#.#.#.#.A M M M / / M / / / i t y M e > r 5Xg.( ( ( ( ( ( ( ( ( ( ..X.1.] H { 9.0.a.a.",
"r U Y Y ! ! &.&.@.@.[ J M V M N M M M V y y y i y - - P 4Xe.( ( ( ( ( ( ( ` ..X.X.o.9./ [ =.9.0.a..X",
"zXcXcXbXlXsXlX,Xq.S S A A M y M t M / C / / i y + O . T 3Xs.....` ` ........o.o.2.2.G G { { 0.e.a.cX",
"sXaXtXrXrXeX6X;Xb.S n C t n y V B [ [ D i i 6 7 O   - A.%X2.X.X.X.X.X.o.+.o.o._ N N M $.#.9.r.B.lXvX",
"rXrX0X0X X9X3X+Xx.#.0 0 e w C A J J S Z u 0 p +     ; c.Z.f.+.+.O.+.+.o.' N N N V b S c.g.g.A.pXaXaX",
"0X0X X X X}.#X/.e.K > 5 5 0 u C Z A Z u u 6 + O @ @ @ s.s.%.%.+.+.) N q y b b b b y g.g.g.t.uXtXtXrX",
"8X X}.{.].[.$Xn.! z & + 7 0 0 t u C C t 0 p + 4 4 4 4 S.A.*.*.*.u 5 8 8 q q q q q n g.g.t.*XtXrXqXqX",
"}.[.~.Y.R.~.U.a.~ l 3 - + - 6 0 0 t D R m.M.dXSXGXHXGX<Xx.*.i *.C - = > 8 8 8 8 8 J %.q.i.yX0X8X8X8X",
"~.~.y.u.>.!.p.! ~ z 2 # + + 5 ^ 1X1XhXnXMXGXFXHXJXBX1XZ.x.$.u i C O - = = 8 > 8 e @.#.&.,XeX X8X X}.",
"y.u.w.,.;.~.a.! %.D s # O - A.6XyXqX=X=X-X>XpXDXFXjX<XC.x.#.C 0 u 6 8 0 w Z Z Z S J [ B.yX X}.}.[.~.",
"w.;.;.Q =.$X!.e.q.D s ; P l.:X0X8X X}.}.].=X>X6XjXgXZ.c.s.Y x 6 0 5 0 w n Z A D Y Y ~ uX9X{.'.~.Y.|.",
"=.=.K F ;.Y.!.f.#.Y s R z.}.8X8X=X}.}.].^.~.^.*X4XZ.c.f.#.U l r 6 - 6 0 T 7X6XhXlX6X;XyX{.'.'.|.u.;.",
"K F F W ,.Q ;.f.$.Y XX]. X X8X}.=X}.[.^.~.Q.Y.z.$Xc.n.g.A.g.x.@.- P D.gXzXCXxXlX3X>X3XpX=XY.u.;.;.=.",
"M.S.XX*XV.V.V.<XD.kXlXuXpXpXiXiXiX6X6X6X6X2X1X<X1XcXhXgX5X1X1XhXjXmXmXNXNXZXcXlXcXlXlXcXlXpX2XV.V.V."
};
