/* XPM */
static char *result[] = {
/* columns rows colors chars-per-pixel */
"50 50 211 2 ",
"   c #000000",
".  c #060609",
"X  c #0B0508",
"o  c #1D030E",
"O  c #170304",
"+  c #0D0C12",
"@  c #13151B",
"#  c #2F0601",
"$  c #22030B",
"%  c #3A051C",
"&  c #330419",
"*  c #1B1925",
"=  c #1D1B29",
"-  c #161923",
";  c #201E2C",
":  c #092626",
">  c #1D242B",
",  c #15282B",
"<  c #162C32",
"1  c #14383C",
"2  c #25212D",
"3  c #252333",
"4  c #282535",
"5  c #26243A",
"6  c #2A263C",
"7  c #2C2A3C",
"8  c #262A38",
"9  c #253235",
"0  c #273A3C",
"q  c #3D3E3F",
"w  c #32393B",
"e  c #470902",
"r  c #5F0C02",
"t  c #530A02",
"y  c #760E03",
"u  c #6A0D02",
"i  c #460622",
"p  c #57082A",
"a  c #5E082E",
"s  c #740A38",
"d  c #660A29",
"f  c #2E2B43",
"g  c #2D2C45",
"h  c #312D46",
"j  c #322E49",
"k  c #3A2F4A",
"l  c #2C3B4B",
"z  c #283748",
"x  c #343346",
"c  c #35324C",
"v  c #3A334D",
"b  c #3A3A4E",
"n  c #3A3651",
"m  c #353A54",
"M  c #3D3955",
"N  c #3D3C59",
"B  c #343551",
"V  c #2E3B50",
"C  c #443A55",
"Z  c #423E5A",
"A  c #403551",
"S  c #41384D",
"D  c #234247",
"F  c #384A4F",
"G  c #3A404F",
"H  c #294957",
"J  c #3D435C",
"K  c #354557",
"L  c #0D5B62",
"P  c #394F64",
"I  c #275765",
"U  c #385868",
"Y  c #1A656F",
"T  c #1A6C74",
"R  c #1A747A",
"E  c #236062",
"W  c #2A666A",
"Q  c #38626D",
"!  c #296A75",
"~  c #396C76",
"^  c #28747C",
"/  c #337E7F",
"(  c #45415E",
")  c #47465D",
"_  c #4A4F5D",
"`  c #464361",
"'  c #4A4663",
"]  c #444A64",
"[  c #4D4967",
"{  c #4E4B69",
"}  c #524D6B",
"|  c #534966",
" . c #475767",
".. c #54506E",
"X. c #565271",
"o. c #5A5574",
"O. c #5F5A7A",
"+. c #5D5877",
"@. c #455B74",
"#. c #625C7C",
"$. c #4A6369",
"%. c #466676",
"&. c #487278",
"*. c #517B7B",
"=. c #8E1103",
"-. c #9A1303",
";. c #99111E",
":. c #A51404",
">. c #BD1704",
",. c #B4150B",
"<. c #AB1411",
"1. c #A21218",
"2. c #840D2C",
"3. c #8F0F25",
"4. c #1E7B81",
"5. c #217D83",
"6. c #387685",
"7. c #596D80",
"8. c #4E7985",
"9. c #19959B",
"0. c #2E878E",
"q. c #32848B",
"w. c #238D92",
"e. c #338F93",
"r. c #2D969C",
"t. c #35959A",
"y. c #2B9CA3",
"u. c #339CA1",
"i. c #17AAAB",
"p. c #1AB3B3",
"a. c #39A6AC",
"s. c #26B8B9",
"d. c #3ABBBD",
"f. c #31A9AD",
"g. c #4A8C96",
"h. c #59969A",
"j. c #4A8C94",
"k. c #658C96",
"l. c #599AA2",
"z. c #7196A2",
"x. c #759CA7",
"c. c #43AFB4",
"v. c #55AAB2",
"b. c #48B1B5",
"n. c #5AB5BC",
"m. c #54A5AE",
"M. c #64A1AA",
"N. c #69ACB4",
"B. c #77A9B3",
"V. c #67B6BD",
"C. c #7BBABD",
"Z. c #74A0AB",
"A. c #39BEC0",
"S. c #45BBC0",
"D. c #75BDC5",
"F. c #62BEC1",
"G. c #2BC5C5",
"H. c #2ECCCD",
"J. c #21C5C7",
"K. c #36CACB",
"L. c #38D4D4",
"P. c #3CDEE0",
"I. c #3EFAFC",
"U. c #3FE4E3",
"Y. c #43CBCD",
"T. c #52C5C9",
"R. c #44D6D6",
"E. c #48D9DA",
"W. c #55D9DA",
"Q. c #4ECED0",
"!. c #6BC9CC",
"~. c #65D6D8",
"^. c #74CED3",
"/. c #5CDFE0",
"(. c #53E9EC",
"). c #4DF2F2",
"_. c #56F9FA",
"`. c #42E2E1",
"'. c #62E2E3",
"]. c #6DE6E7",
"[. c #76E7E7",
"{. c #69FAFC",
"}. c #72FDFF",
"|. c #79F7F9",
" X c #83AFBD",
".X c #89BCC8",
"XX c #96C8D9",
"oX c #8DCACF",
"OX c #A8D2DF",
"+X c #9CDFE4",
"@X c #88DDE0",
"#X c #B7DAE5",
"$X c #8AE8E9",
"%X c #95E7E8",
"&X c #8BFDFE",
"*X c #89F5F6",
"=X c #9BF6F6",
"-X c #9EFDFD",
";X c #97F8F8",
":X c #A4F6F7",
">X c #A4FDFD",
",X c #ACFDFC",
"<X c #B5FBFC",
"1X c #BCF8F9",
"2X c #A7E8E8",
"3X c #D0FDFD",
"4X c #D1F5F6",
"5X c #CAEAEF",
"6X c #E0F0F3",
"7X c #E8FFFF",
"8X c #F8FDFB",
/* pixels */
"` ' [ [ } } `  .N.V.m.H Q |.:XL.L.y.H ( [ } X.o.o.+.+.X.j f j m ( { o.N x B C Z Z ` ' | ' [ [ [ N n ",
"{ [ } X.X.[ 7.;X,X,XQ.g.Y.y.~.G.s.m N ( [ | | } X.X.X.} Z f c m ( ` J c c M Z Z ` ' [ | } } } } ' C ",
"] } o.o.X.M g.:X$X`.f.P P P ] ] N n n N Z ` [ [ [ [ [ ` N f g c c c n f j M ( ` ' | } X.X.} X.[ [ C ",
"m [ X.o.( g V e.L.).].!.v.6.P ( j j n n M Z Z Z Z ( Z ( m f g j c n M v f f v Z [ } X.X.X.o.[ ` N C ",
"z k.+X%X~.l l !.>X&X}.}.{.).b.~.I j +                             2 N Z B j f j n Z [ | ` Z n b k n ",
"~.=X3X<X}.Q ^ R.-X-X>X&X}.d.b.q.z + .   =.=.=.=.=.=.=.=.=.=.=.u   . > ' ` ` Z x j j n Z c x h j c 8.",
"*X3X7X%XE.^ 5.G.&X-X=XW.d.0.U 7 -   e r >.>.>.>.>.>.>.>.>.>.>.:.r O . 4 A X...( f h f j f g N [ [ ~.",
"(.).*X'.H.^ R G.].(.Y.a.%...o.A     =.>.>.>.>.>.>.>.>.>.>.>.>.>.>.#     4 +.+.{ c n j 6 f ( [ [ @.|.",
"P.U.U.H.A.r.@Xc.q.u.~ ( [ } } b   r :.>.>.>.>.>.>.>.>.>.>.>.>.>.>.y e   @ k +...C Z Z M c Z Z Z  .F.",
"T.L.s.e.! F.W.! 3 3 j N ( ` 3 *   >.>.>.>.>.>.>.>.>.>.>.>.>.>.>.>.>.:.r # + n ( Z ` ` Z c n n 7.:XW.",
"t.4 3 3 f z j j j f f v n M       >.>.>.>.>.>.=.=.=.=.=.=.=.=.=.=.=.=.=.e + c c M [ [ Z j j m *X%XW.",
"I 7 h c n n n n c j j 6 f j   O r >.>.>.>.>.>.                            . - f n [ Z v 6 5 g.].E.u.",
"j c n M M Z C C M n c f g B   # >.>.>.>.>.:.=.  2 9 9 9 9 9 w b q q q 9 9 >   3 3 ( &.j c n x.a.! M ",
"m n N Z ` Z ` Z Z M j g B N   # >.>.>.>.>.#     z.XXXXXXXXXX5X8X8X8X6XXXXXz.    @ $Xj.M N C N B 6 k ",
"m M Z ` ' { { ' ` Z f j M `   # >.>.>.>.>.#   9 Z.XXXXXXOX5X6X8X8X4X#XXXXX X$.  < ;X%.` [ ( N c 6 v ",
"( ` [ } X.X.X...` h ; 5 8 g   # >.>.>.>.>.#   $.x..XXXXX#X6X6X6X6XOXXXXXXXXXXX  + ^ K } [ c n [ j n ",
"` [ | X.+.+.#.} b 7           # >.>.>.>.>.#   $.$.z.XXXXXXXXXXXXXXXXXXXXXXXXXX  9 e.H ] c j n N f C ",
"N [ ..o.O.#.} 7       r >.>.  # >.>.>.>.>.#   $.$.$.$.z.XXXXXXXXXXXXXXXXXXXXXX  , p.R x 7 n { [ x v ",
"m c C [ ` Z x *     # y >.>.  # >.>.>.>.>.#   $.$.$.$.k. X X X X X X X X X X X  : i.Y b M [ } X.o.| ",
"X.` h h ] oX&.    # >.>.>.>.  # >.>.>.>.>.#   $.$.$.$.$.$.$.$.$.$.$.$.$.$.$.$.  : Y 7 n ` [ [ } ..o.",
"..{ N g N.3X&.o s 2.>.>.>.>.  # >.>.>.>.>.#     F $.$.$.$.$.$.$.$.$.$.$.$.F     : 5.c M ( ` [ [ | } ",
"] ] n f ~ [.E o s 2.<.>.>.>.  # >.>.>.>.>.t #   0 _ $.$.$.$.$.$.$.$. .F F 0   0 1 I n M N Z ( ( [ | ",
"` ` n f 7 q.1 o s s s >.>.>.  # >.>.>.>.>.>.>.    9 $.$.$.$.$.$.$.$.F         b.I B c B M N Z Z Z ( ",
"N j j 5 v M 2 $ s s s s s s   # >.>.>.>.>.>.>.>.#                       r =.  ! j M c c c n n M C C ",
"B g f 5 m D.*.o s s s s s s   $ 2.>.>.>.>.>.>.>.-.=.=.=.=.=.=.=.=.=.=.=.:.=.  ` j v j j j j c c j n ",
"g 5 5 K (.{.6.o s s s s s s   o s >.>.>.>.>.>.>.>.>.>.>.>.>.>.>.>.>.>.>.>.=.  [ [ j f f j j g g h k ",
"@.] 7 y.I._./ o s s s s s s   o s s <.>.>.>.>.>.>.>.>.>.>.>.>.>.>.>.>.>.>.=.  [ ` n 5 f f 5 5 5 x { ",
"<X~.6.Q I._./ o s s s s s s   o s s <.>.>.>.>.>.>.>.>.>.>.>.>.>.>.>.>.>.1.d   Z n n n n j h %.oX>X<X",
"3XK.G.G ~ f./ o s s s s s s   o s s <.>.>.>.>.>.>.>.>.>.>.>.>.>.>.>.>.>.;.p   v n Z M n n ^.=X>X,X4X",
"1XG.L.Q ,XB.< o s s s s s s   o s s 2.2.>.>.>.>.>.>.>.>.>.>.>.>.>.>.>.>.;.p   M Z Z Z M j.&X>X:X<X4X",
"^.s.H.K T.b.D o s s s s s s   o s s s s >.>.>.>.>.>.>.>.>.>.>.>.>.>.>.>.;.p   ' ' ` Z Z n.'.].[.[.$X",
"K.p.s.D C. .2 o s s s s s s   o s s s s ;.,.>.>.>.>.>.>.>.>.>.>.>.>.>.>.;.p   { [ ' ` Z Q.W./.~.(.~.",
"~.i.R N.+Xd.= o s s s s s s   o s s s s s <.>.>.>.>.>.>.>.>.>.>.>.>.>.>.;.p   ` } [ ` [ L.E.E.W.W.Q.",
"5.L H a.w.T - o s s s s s s   o s s s s s 3.;.;.;.<.>.>.>.>.>.>.>.1.;.;.2.p   n ` [ ' ] H.K.L.L.L.c.",
"H b l z j g - o s s s s s s   o s s s s s s s s s 3.<.<.<.<.<.<.<.2.s s s p   c c N M n 6.i.p.p.i.! ",
") | c x j v * o s s s s s s   o s s s s s s s s s s s s s s s s s s s s s p   c j g h f f N H W ! k ",
"( S j v n n ; X o & s s s s   o s s s s s s s s s s s s s s s s s s s s s p   n h 6 M M.m.w.V N ' S ",
"j.l n M Z Z 4 +   O p p p p   o s s s s s s s s s s s s s s s s s a a s s p   c j J 2X,X].G.! M.D..X",
"K.b C Z Z Z Z j               o s s s s s s s s s s s s s s s s s o o s s p   7.c n.].[.[.`.y.h.<X[.",
"H j Z ` [ ( ` ' c j c n M (   o s s s s s s s s i % % % % % % % % % i s s p   <XQ K.E.W.R.w.I K b.U ",
"j j ` [ { ' ' ' f j c n M Z . o s s s s s s s s o X + + .   X o o a s s s p   !.I 9.J.s.~ B ` M j k ",
"m j Z | } [ ' j f f j v n C   o s s s s s s s s o > x.XX~   % s s s s s s p   I x b ' [ ....c j n A ",
"N f n ' ` n j f f f j j n M   o s s s s s s s s o W $X{.W   % s s s s s s p   h B M ( ' { ..b N C C ",
"N j f h h h f f f f f g j n   o s s s s s s s s $ E E.s.<   % s s s s s a i   f b n Z ` [ ' M [ ' | ",
"N f f g j j j j j j f 5 6 f   o s s s s s s s s o H ^ 0 *   % s s s s s %     f j j n n n n n X.} | ",
"B g j c j n n n n c j h 5 4   o s s s s s s s s o W C.l.;     o s s p     + f f j j j c n g j ' ( A ",
"B n n n n n n n n n c c 7 3   o s s s s s s s s o D h.Q 2     o s s p     + g j j n B n n v 6 n j k ",
"m n n n M Z N C M M n b 6 x       s s s s s s     - w 4 ) X.7           * j j j n n n n M C c f h k ",
"m M Z ( ` ` Z ( n n c f f @X,X!.                b o.#.b b | ....} [ J n g j c v n M M C Z Z Z h 7 k ",
"N ` ` ' ' ' ' C n B c f 8.,X<X2Xh.j.E * = 4 7 b } #.#...h N Z Z ( ` ..N h c n n M Z ( ( ` ` ` N h A "
};
